inDegrees=no
num_controls=7
num_derivatives=13
num_iterations=223
num_multipliers=7
num_parameters=0
num_slacks=7
num_states=26
objective=1.453843
objective_accelerations=0.032115
objective_balance=0.005977
objective_effort=0.023643
objective_height=0.385574
objective_ligament=1.006534
solver_duration=2970.028898
status=Solve_Succeeded
success=true
DataType=double
version=3
OpenSimVersion=4.5
endheader
time	/jointset/ground_pelvis/pelvis_tilt/value	/jointset/ground_pelvis/pelvis_tx/value	/jointset/ground_pelvis/pelvis_ty/value	/jointset/hip_l/hip_flexion_l/value	/jointset/hip_l/hip_adduction_l/value	/jointset/hip_l/hip_rotation_l/value	/jointset/back/lumbar_extension/value	/jointset/patellofemoral_l/patellar_flexion_l/value	/jointset/knee_l/knee_flexion_l/value	/jointset/knee_l/knee_adduction_l/value	/jointset/knee_l/knee_rotation_l/value	/jointset/ankle_l/ankle_angle_l/value	/jointset/subtalar_l/subtalar_angle_l/value	/jointset/ground_pelvis/pelvis_tilt/speed	/jointset/ground_pelvis/pelvis_tx/speed	/jointset/ground_pelvis/pelvis_ty/speed	/jointset/hip_l/hip_flexion_l/speed	/jointset/hip_l/hip_adduction_l/speed	/jointset/hip_l/hip_rotation_l/speed	/jointset/back/lumbar_extension/speed	/jointset/patellofemoral_l/patellar_flexion_l/speed	/jointset/knee_l/knee_flexion_l/speed	/jointset/knee_l/knee_adduction_l/speed	/jointset/knee_l/knee_rotation_l/speed	/jointset/ankle_l/ankle_angle_l/speed	/jointset/subtalar_l/subtalar_angle_l/speed	/forceset/tau_hip_flexion_l	/forceset/tau_hip_adduction_l	/forceset/tau_hip_rotation_l	/forceset/tau_knee_flexion_l	/forceset/tau_ankle_angle_l	/forceset/tau_subtalar_angle_l	/forceset/tau_lumbar_extension	lambda_cid13_p0	lambda_cid13_p1	lambda_cid13_p2	lambda_cid13_p3	lambda_cid13_p4	lambda_cid13_p5	lambda_cid14_p0	/jointset/ground_pelvis/pelvis_tilt/accel	/jointset/ground_pelvis/pelvis_tx/accel	/jointset/ground_pelvis/pelvis_ty/accel	/jointset/hip_l/hip_flexion_l/accel	/jointset/hip_l/hip_adduction_l/accel	/jointset/hip_l/hip_rotation_l/accel	/jointset/back/lumbar_extension/accel	/jointset/patellofemoral_l/patellar_flexion_l/accel	/jointset/knee_l/knee_flexion_l/accel	/jointset/knee_l/knee_adduction_l/accel	/jointset/knee_l/knee_rotation_l/accel	/jointset/ankle_l/ankle_angle_l/accel	/jointset/subtalar_l/subtalar_angle_l/accel	gamma_cid13_p0	gamma_cid13_p1	gamma_cid13_p2	gamma_cid13_p3	gamma_cid13_p4	gamma_cid13_p5	gamma_cid14_p0
0	-0.006666911896890444	0.05738997341688621	0.9006661673876019	0.1955287580552426	-0.2768354491816788	-0.5421248767223587	-0.1379045077516729	0.07015288079084532	0.07015288079084844	-0.07674666924606763	-0.1744174496590273	-0.06701059314715049	0.05390185376208145	0	0	0	0	0	0	0	0	0	0	0	0	0	0.137017888677287	-0.1119833629895564	-0.02657871481843569	-0.2766987964769069	0.2402371305369701	-0.03353442171266856	-0.07384917416510985	39.0582984655094	4.540925185550393	2.577313365862421	5.039807559519728	-526.7928886229865	-77.56912387541686	-41.12732718968398	-5.273920056396467	-2.108021639469892	-0.851618980216971	11.69384602925443	-0.8733688512776128	2.223152660071274	-3.154350824105454	5.898403145085768	5.898403145085865	1.534649673173694	-0.1433887901017215	-0.08864226166677193	-1.041608432896391	2.218852937562049e-08	9.380583312527831e-08	-6.046160945541225e-08	1.050043731213035e-08	5.164758117495161e-08	4.517683134316095e-08	2.21344033936202e-08
0.01	-0.006921355152946937	0.05728592596711524	0.9006247141477622	0.1960965660524312	-0.2768790128247868	-0.5420131169623443	-0.138065275162528	0.07043962514289626	0.07043962514290202	-0.07667453527047419	-0.1744212044444279	-0.06701707059641215	0.0538486960713063	-0.05062196334724173	-0.02070572868930005	-0.008262250118070753	0.1129388611709704	-0.008774835346520949	0.02229096451496404	-0.031788971684315	0.05709287018349845	0.05709287018349762	0.01411901418651461	-0.0007069204151525506	-0.001310686974570984	-0.01070812297784008	0.130645085598857	-0.1096134084238399	-0.0261376298770434	-0.2675802418495598	0.2285351926736402	-0.02914396422933548	-0.06852098842287359	35.53605100199599	3.167149106727655	2.89195888646627	6.237053404401065	-527.1959049698091	-79.65662577070498	-41.13296301729262	-4.916332016417864	-2.036282193545774	-0.8092580206036567	11.00049523834076	-0.8888663537676129	2.222935121813992	-3.136493767841294	5.576324494008392	5.576324494008227	1.304368129579395	-0.0277538988628637	-0.1545568137646132	-1.096909945776033	1.323850399382714e-08	7.956313628978334e-08	-2.611193835310149e-08	1.302860458699355e-08	-5.395502658360029e-08	2.28804486975247e-08	1.909298703148855e-08
0.02	-0.007674017550977216	0.05697793448847453	0.9005014924081416	0.1977750804767979	-0.2770121899168454	-0.5416802742022584	-0.1385329969756743	0.07128961730459052	0.07128961730459123	-0.0764704429853772	-0.1744307104803007	-0.06703710989510174	0.05368615800764315	-0.09964382839569529	-0.04078880577394644	-0.01635369995619074	0.2221412854348442	-0.01792268979016924	0.04421660001412952	-0.0613908804585211	0.1126495619280573	0.1126495619280554	0.02639166190059178	-0.001150250095938008	-0.00271236988563512	-0.02187607457760768	0.1242722825204251	-0.1072434538581333	-0.02569654493567031	-0.2584616872222124	0.2168332548103048	-0.02475350674601616	-0.06319280268063278	32.05603951501067	1.788968860812975	3.203891657827978	7.429932516834206	-526.9347211942667	-81.60749528283456	-41.14958145287931	-4.953900396638955	-1.983491318539054	-0.8174589242268175	10.94655864783511	-0.9479726707030715	2.150086856911553	-2.716938242083758	5.591167457297834	5.591167457297885	1.165376378686226	-0.0906706432282819	-0.1068414489652842	-1.133574157281814	4.288478612033793e-09	6.532043945428837e-08	8.237732749209276e-09	1.555677186185674e-08	-1.595576343421522e-07	5.840660518884459e-10	1.605157066935689e-08
0.03	-0.008910150272738424	0.05647227524676859	0.9002979862280592	0.2005283871465547	-0.2772384319083401	-0.5411308198216753	-0.1392863669349869	0.0726874914873185	0.07268749148732173	-0.07615241516921369	-0.1744440475818273	-0.06707163212830801	0.05340995857396235	-0.1473900760550746	-0.06023231535198573	-0.02433482961525231	0.3279688912408859	-0.02735763260617623	0.0655939772564177	-0.08902762287870797	0.1666394070430823	0.1666394070430769	0.03694360575722339	-0.001475232805465713	-0.004215526194720417	-0.0334108418484892	0.1201088915498789	-0.1052255356830633	-0.02544286863899758	-0.2546002295508055	0.2131369632084038	-0.02323901973796159	-0.05965832584416141	31.00405651760762	1.296245597846039	3.304348305463636	7.227915941117137	-526.6545645036292	-81.77472815868751	-41.1766698038851	-4.656090031601535	-1.90816857329261	-0.786566358188495	10.31818652572128	-0.9460525240963499	2.119519638772161	-2.748718963434915	5.260009704347684	5.26000970434717	0.9595693928452805	0.002876387210019273	-0.1755653359875042	-1.170493883402819	-4.698750271429115e-09	2.341713039450972e-08	3.008593435572315e-08	1.595894813892826e-08	-2.44519374857789e-07	-1.486227990800555e-08	8.620250082214681e-09
0.04	-0.01061796608729238	0.05577550335011142	0.9000150434770975	0.2043234348701221	-0.2775599828154042	-0.5403700003724917	-0.1403084396627899	0.07461668745434642	0.07461668745434681	-0.075736974713747	-0.1744593768160394	-0.06712188844742642	0.05301699829329047	-0.1939804469550347	-0.079011336764195	-0.03224101413202606	0.4304894961962374	-0.0369844729040536	0.08648961373409451	-0.1151314341568647	0.2189139187878208	0.2189139187878128	0.04587418976160127	-0.001548676633991144	-0.005859187068098986	-0.04522824397582954	0.1159455005793323	-0.103207617508	-0.02518919234233065	-0.2507387718794024	0.2094406716064969	-0.02172453272991765	-0.05612384900768282	29.98966884687436	0.7994827625146627	3.402545543330249	7.020446735190778	-525.7826587661056	-81.81626328120538	-41.21356818758041	-4.722725044755235	-1.85059368537295	-0.8024698957692531	10.28515847769709	-0.986352167077142	2.053738703989273	-2.410352013677809	5.248100783240497	5.248100783240737	0.8411044082354935	-0.04036286702780266	-0.1349423618238242	-1.190101128573504	-1.368674623740068e-08	-1.905650056680056e-08	5.167637370459173e-08	1.631728955006594e-08	-3.290555304818194e-07	-3.016738799809044e-08	1.09841600589699e-09
0.05	-0.01278610222411285	0.05489418224386547	0.8996532636424136	0.2091278308621118	-0.2779786501875226	-0.5394035166777291	-0.1415830059439532	0.07706053222450598	0.07706053222450841	-0.07523996860575709	-0.1744751646864124	-0.067189146653583	0.05250467165916789	-0.2394211710802325	-0.09714819809164339	-0.04011050190211089	0.5298308541805861	-0.04676153404432497	0.1067166681657532	-0.1394921732047797	0.2695809070112266	0.2695809070112212	0.05329775819082116	-0.001577227561861286	-0.007610573130497338	-0.05725860227593805	0.1100307445074149	-0.09763421414479309	-0.02483097322384518	-0.2444528453240747	0.2037734423668496	-0.02151396601255936	-0.05131645880687635	28.28722249908541	0.8958779194023248	3.513099435200986	7.379961779435257	-524.9120922108763	-80.2258016783245	-41.25950758576545	-4.420899518396698	-1.779526130796952	-0.7785870764573306	9.674797774866324	-0.9752582732479509	1.993609007558215	-2.405487519928261	4.934878447993066	4.934878447993334	0.6585919606851189	0.02066048286115027	-0.1979524328298896	-1.212733840137935	-1.913224687802462e-08	-5.003215626674743e-08	6.378159488331124e-08	1.553260866404724e-08	-3.8507659650873e-07	-3.611581819407247e-08	-4.530687085391252e-09
0.06	-0.01540187628658031	0.05383463376947219	0.8992129091582632	0.2149088750971609	-0.2784954632081931	-0.5382374783996888	-0.1430924901495106	0.08000282299812139	0.08000282299812121	-0.07467560503339286	-0.1744902857283539	-0.06727446186123981	0.05187139531016258	-0.2835080320852331	-0.1146568103936643	-0.04795594402536581	0.6258191448074424	-0.05661360261442647	0.1264005303895742	-0.1621150190359095	0.3186031194787298	0.3186031194787263	0.05934568263683624	-0.001415310948619873	-0.009470587368176787	-0.06941818695238214	0.104115988435498	-0.09206081078159174	-0.024472754105365	-0.2381669187687481	0.1981062131271984	-0.02130339929520936	-0.0465090686060649	26.61784239054066	0.9892857060227308	3.620930033961538	7.731893051556913	-523.523760600478	-78.52275987623956	-41.31364218250175	-4.451952420715925	-1.724943880287355	-0.7976607664032734	9.614545006198618	-1.001353653043163	1.945100262421751	-2.062773370320817	4.91914563205995	4.919145632060036	0.5659756115945439	-0.002269358805463443	-0.1566679968799333	-1.215946403840553	-2.442858982073919e-08	-8.05236866925316e-08	7.548743845486657e-08	1.469980052341144e-08	-4.398970271841829e-07	-4.167028300503965e-08	-1.008009624046773e-08
0.07000000000000001	-0.0184523934169697	0.05260318437184415	0.8986940781032013	0.2216340608095012	-0.2791110759845402	-0.5368778505670044	-0.1448191363383148	0.08342761335599251	0.0834276133559945	-0.07405723191759804	-0.1745034862712181	-0.06737864121111602	0.05111616009222101	-0.3263749314629958	-0.1315212956014299	-0.05581253225507489	0.7186695716030735	-0.06650335942833914	0.1454135611836759	-0.1829469099035661	0.3660830883758505	0.3660830883758528	0.06413511263019989	-0.001211488879497734	-0.01137000894348247	-0.08162149458511933	0.09826979034148149	-0.08781163778152067	-0.02413647121262038	-0.2330282926604476	0.1935672832335474	-0.02036647410291761	-0.04179170746450943	25.33852030312293	0.750897957963538	3.722307867364727	7.686711000137446	-522.2632942660076	-77.55667466292515	-41.37503889870515	-4.170981318587189	-1.65043188130961	-0.7800862853582263	9.038029459003527	-0.9819317190236475	1.862663993394283	-2.053300622004146	4.621645043814333	4.621645043815164	0.4063437492055352	0.03372403786045979	-0.2072878516118178	-1.221414284204529	-2.801024096700841e-08	-1.160694350879012e-07	8.164754535748215e-08	1.201081787297061e-08	-4.768456230428881e-07	-4.554631121981376e-08	-1.592583303530768e-08
0.08	-0.02192496406558915	0.05120644391408113	0.8980965954790219	0.2292712983783524	-0.2798254153337184	-0.5353314405252808	-0.1467460821711978	0.08731904790789095	0.08731904790789149	-0.07339678109067238	-0.1745142453837689	-0.06750195649949638	0.05023911352970926	-0.3679187357320047	-0.1477150224206631	-0.06368625784892122	0.808229516109036	-0.07635891718058278	0.1637569721973736	-0.2021749478518827	0.4119319582840189	0.4119319582840265	0.06776122486349341	-0.0009270248867986825	-0.01329777506902465	-0.09378045586642504	0.09242359224746421	-0.08356246478145488	-0.02380018831987701	-0.227889666552148	0.189028353339893	-0.01942954891063371	-0.03707434632295058	24.08753462184295	0.5100695902088732	3.821196408968905	7.633283945668533	-520.5552251230678	-76.49185958244966	-41.44271395437636	-4.187333398965259	-1.590792202580761	-0.8010882392307228	8.956448548264861	-0.9945138407093531	1.811176306340953	-1.742002786452887	4.592925834269442	4.592925834269425	0.3333120595805295	0.01385902590995179	-0.162336906927127	-1.207077133554193	-3.14812668360876e-08	-1.519412620619536e-07	8.744986279758547e-08	9.202082028348823e-09	-5.126411973005128e-07	-4.931405320257541e-08	-2.179068774239043e-08
